<svg xmlns="http://www.w3.org/2000/svg" viewBox="0 0 840 219" fill="none" role="img" aria-label="Impulzia logo">
  <path d="M 540 49 L 539 50 L 538 50 L 537 51 L 537 53 L 536 54 L 536 69 L 537 70 L 537 73 L 538 74 L 539 74 L 540 75 L 587 75 L 588 76 L 588 78 L 577 89 L 577 90 L 565 102 L 565 103 L 553 115 L 553 116 L 540 129 L 540 130 L 535 135 L 535 136 L 534 137 L 534 138 L 533 139 L 533 156 L 534 157 L 534 158 L 535 159 L 536 159 L 537 160 L 627 160 L 628 159 L 630 159 L 631 158 L 631 156 L 632 155 L 632 138 L 631 137 L 631 136 L 629 134 L 626 134 L 625 133 L 579 133 L 578 134 L 577 133 L 576 133 L 575 132 L 581 126 L 581 125 L 599 107 L 599 106 L 616 89 L 616 88 L 628 76 L 628 75 L 630 73 L 630 72 L 631 71 L 631 69 L 632 68 L 632 54 L 631 53 L 631 51 L 629 49 Z" fill="#282727" fill-rule="evenodd"/>
  <path d="M 371 49 L 369 51 L 369 52 L 368 53 L 368 119 L 369 120 L 369 127 L 370 128 L 370 131 L 371 132 L 371 135 L 372 136 L 372 137 L 373 138 L 373 140 L 374 141 L 374 142 L 376 144 L 376 145 L 378 147 L 378 148 L 384 154 L 385 154 L 387 156 L 388 156 L 390 158 L 391 158 L 392 159 L 394 159 L 395 160 L 397 160 L 398 161 L 401 161 L 402 162 L 407 162 L 408 163 L 417 163 L 418 162 L 423 162 L 424 161 L 426 161 L 427 160 L 429 160 L 430 159 L 431 159 L 432 158 L 433 158 L 434 157 L 435 157 L 438 154 L 439 154 L 445 148 L 446 149 L 446 153 L 447 154 L 447 157 L 449 159 L 450 159 L 451 160 L 470 160 L 471 159 L 473 159 L 474 158 L 474 156 L 475 155 L 475 54 L 474 53 L 474 51 L 472 49 L 450 49 L 449 50 L 448 50 L 448 51 L 447 52 L 447 55 L 446 56 L 446 116 L 445 117 L 445 119 L 444 120 L 444 121 L 443 122 L 443 123 L 442 124 L 442 125 L 436 131 L 435 131 L 433 133 L 432 133 L 431 134 L 429 134 L 428 135 L 426 135 L 425 136 L 414 136 L 413 135 L 411 135 L 410 134 L 409 134 L 408 133 L 407 133 L 401 127 L 401 126 L 400 125 L 400 124 L 399 123 L 399 122 L 398 121 L 398 119 L 397 118 L 397 114 L 396 113 L 396 52 L 395 51 L 395 50 L 394 50 L 393 49 Z" fill="#282727" fill-rule="evenodd"/>
  <path d="M 14 49 L 12 51 L 12 52 L 11 53 L 11 156 L 12 157 L 12 158 L 13 159 L 14 159 L 15 160 L 35 160 L 36 159 L 37 159 L 38 158 L 38 157 L 39 156 L 39 53 L 38 52 L 38 51 L 36 49 Z" fill="#282727" fill-rule="evenodd"/>
  <path d="M 296 46 L 295 47 L 291 47 L 290 48 L 288 48 L 287 49 L 285 49 L 284 50 L 283 50 L 282 51 L 281 51 L 280 52 L 279 52 L 278 53 L 277 53 L 274 56 L 273 56 L 269 60 L 268 59 L 268 54 L 267 53 L 267 51 L 266 50 L 265 50 L 264 49 L 243 49 L 242 50 L 241 50 L 241 51 L 240 52 L 240 54 L 239 55 L 239 208 L 240 209 L 240 211 L 242 213 L 245 213 L 246 214 L 261 214 L 262 213 L 265 213 L 267 211 L 267 210 L 268 209 L 268 150 L 269 149 L 272 152 L 273 152 L 276 155 L 277 155 L 279 157 L 280 157 L 281 158 L 282 158 L 283 159 L 285 159 L 286 160 L 287 160 L 288 161 L 291 161 L 292 162 L 297 162 L 298 163 L 309 163 L 310 162 L 315 162 L 316 161 L 319 161 L 320 160 L 322 160 L 323 159 L 325 159 L 326 158 L 327 158 L 328 157 L 329 157 L 330 156 L 331 156 L 332 155 L 333 155 L 335 153 L 336 153 L 339 150 L 340 150 L 345 145 L 345 144 L 348 141 L 348 140 L 350 138 L 350 137 L 351 136 L 351 135 L 352 134 L 352 133 L 353 132 L 353 131 L 354 130 L 354 129 L 355 128 L 355 126 L 356 125 L 356 122 L 357 121 L 357 118 L 358 117 L 358 93 L 357 92 L 357 88 L 356 87 L 356 84 L 355 83 L 355 81 L 354 80 L 354 79 L 353 78 L 353 77 L 352 76 L 352 75 L 351 74 L 351 73 L 350 72 L 350 71 L 348 69 L 348 68 L 345 65 L 345 64 L 339 58 L 338 58 L 335 55 L 334 55 L 332 53 L 331 53 L 330 52 L 329 52 L 328 51 L 327 51 L 326 50 L 324 50 L 323 49 L 321 49 L 320 48 L 318 48 L 317 47 L 313 47 L 312 46 Z M 292 74 L 293 73 L 306 73 L 307 74 L 309 74 L 310 75 L 312 75 L 314 77 L 315 77 L 317 79 L 318 79 L 324 85 L 324 86 L 326 88 L 326 89 L 327 90 L 327 91 L 328 92 L 328 93 L 329 94 L 329 97 L 330 98 L 330 111 L 329 112 L 329 114 L 328 115 L 328 117 L 327 118 L 327 119 L 325 121 L 325 122 L 323 124 L 323 125 L 319 129 L 318 129 L 315 132 L 314 132 L 313 133 L 312 133 L 311 134 L 310 134 L 309 135 L 307 135 L 306 136 L 294 136 L 293 135 L 290 135 L 289 134 L 288 134 L 287 133 L 286 133 L 285 132 L 284 132 L 282 130 L 281 130 L 274 123 L 274 122 L 272 120 L 272 119 L 271 118 L 271 116 L 270 115 L 270 114 L 269 113 L 269 110 L 268 109 L 268 100 L 269 99 L 269 96 L 270 95 L 270 93 L 271 92 L 271 91 L 272 90 L 272 89 L 273 88 L 273 87 L 282 78 L 283 78 L 285 76 L 286 76 L 287 75 L 289 75 L 290 74 Z" fill="#282727" fill-rule="evenodd"/>
  <path d="M 105 46 L 104 47 L 101 47 L 100 48 L 98 48 L 97 49 L 95 49 L 94 50 L 93 50 L 92 51 L 91 51 L 88 54 L 87 54 L 81 60 L 80 59 L 80 54 L 79 53 L 79 51 L 78 50 L 77 50 L 76 49 L 55 49 L 54 50 L 53 50 L 52 51 L 52 53 L 51 54 L 51 155 L 52 156 L 52 157 L 54 159 L 55 159 L 56 160 L 75 160 L 76 159 L 77 159 L 79 157 L 79 156 L 80 155 L 80 94 L 81 93 L 81 90 L 82 89 L 82 87 L 83 86 L 83 85 L 85 83 L 85 82 L 90 77 L 91 77 L 93 75 L 95 75 L 96 74 L 97 74 L 98 73 L 110 73 L 111 74 L 112 74 L 113 75 L 114 75 L 116 77 L 117 77 L 119 79 L 119 80 L 122 83 L 122 84 L 123 85 L 123 87 L 124 88 L 124 91 L 125 92 L 125 154 L 126 155 L 126 157 L 128 159 L 129 159 L 130 160 L 149 160 L 150 159 L 151 159 L 153 157 L 153 156 L 154 155 L 154 95 L 155 94 L 155 91 L 156 90 L 156 88 L 157 87 L 157 86 L 158 85 L 158 84 L 159 83 L 159 82 L 165 76 L 166 76 L 167 75 L 168 75 L 169 74 L 171 74 L 172 73 L 183 73 L 184 74 L 186 74 L 187 75 L 188 75 L 190 77 L 191 77 L 194 80 L 194 81 L 196 83 L 196 84 L 197 85 L 197 87 L 198 88 L 198 90 L 199 91 L 199 97 L 200 98 L 200 157 L 202 159 L 203 159 L 204 160 L 223 160 L 224 159 L 225 159 L 227 157 L 227 154 L 228 153 L 228 95 L 227 94 L 227 84 L 226 83 L 226 79 L 225 78 L 225 75 L 224 74 L 224 72 L 223 71 L 223 69 L 222 68 L 222 67 L 221 66 L 221 65 L 219 63 L 219 62 L 217 60 L 217 59 L 212 54 L 211 54 L 209 52 L 208 52 L 207 51 L 206 51 L 205 50 L 204 50 L 203 49 L 202 49 L 201 48 L 199 48 L 198 47 L 194 47 L 193 46 L 178 46 L 177 47 L 173 47 L 172 48 L 170 48 L 169 49 L 168 49 L 167 50 L 165 50 L 164 51 L 163 51 L 161 53 L 160 53 L 157 56 L 156 56 L 152 60 L 152 61 L 149 64 L 149 65 L 148 66 L 146 64 L 146 63 L 144 61 L 144 60 L 143 59 L 143 58 L 136 51 L 135 51 L 134 50 L 133 50 L 132 49 L 131 49 L 130 48 L 128 48 L 127 47 L 123 47 L 122 46 Z" fill="#282727" fill-rule="evenodd"/>
  <path d="M 494 17 L 493 18 L 492 18 L 490 20 L 490 157 L 492 159 L 493 159 L 494 160 L 514 160 L 515 159 L 516 159 L 517 158 L 517 157 L 518 156 L 518 21 L 517 20 L 517 19 L 516 18 L 515 18 L 514 17 Z" fill="#282727" fill-rule="evenodd"/>
  <path d="M 18 4 L 17 5 L 15 5 L 14 6 L 13 6 L 12 7 L 11 7 L 7 11 L 7 12 L 6 13 L 6 14 L 5 15 L 5 17 L 4 18 L 4 24 L 5 25 L 5 28 L 6 29 L 6 30 L 12 36 L 13 36 L 14 37 L 15 37 L 16 38 L 20 38 L 21 39 L 22 39 L 23 38 L 27 38 L 28 37 L 30 37 L 32 35 L 33 35 L 35 33 L 35 32 L 37 30 L 37 28 L 38 27 L 38 24 L 39 23 L 39 20 L 38 19 L 38 15 L 37 14 L 37 13 L 36 12 L 36 11 L 32 7 L 31 7 L 30 6 L 29 6 L 28 5 L 26 5 L 25 4 Z" fill="#282727" fill-rule="evenodd"/>
  <path d="M 652 6 L 651 7 L 649 7 L 648 8 L 648 9 L 647 10 L 647 143 L 648 144 L 648 145 L 658 155 L 659 155 L 661 157 L 662 157 L 664 159 L 665 159 L 666 160 L 667 160 L 668 161 L 669 161 L 670 162 L 671 162 L 672 163 L 677 163 L 677 161 L 678 160 L 678 14 L 677 13 L 677 9 L 675 7 L 672 7 L 671 6 Z" fill="#3268FF" fill-rule="evenodd"/>
  <path d="M 744 4 L 743 5 L 742 5 L 741 6 L 741 7 L 740 8 L 740 9 L 739 10 L 739 11 L 738 12 L 738 14 L 737 15 L 737 17 L 736 18 L 736 19 L 735 20 L 735 22 L 734 23 L 734 25 L 733 26 L 733 27 L 732 28 L 732 30 L 731 31 L 731 33 L 730 34 L 730 35 L 729 36 L 729 38 L 728 39 L 728 41 L 727 42 L 727 43 L 726 44 L 726 46 L 725 47 L 725 49 L 724 50 L 724 51 L 723 52 L 723 54 L 722 55 L 722 57 L 721 58 L 721 59 L 720 60 L 720 62 L 719 63 L 719 65 L 718 66 L 718 67 L 717 68 L 717 70 L 716 71 L 716 73 L 715 74 L 715 75 L 714 76 L 714 78 L 713 79 L 713 81 L 712 82 L 712 83 L 711 84 L 711 86 L 710 87 L 710 89 L 709 90 L 709 91 L 708 92 L 708 94 L 707 95 L 707 97 L 706 98 L 706 99 L 705 100 L 705 102 L 704 103 L 704 105 L 703 106 L 703 107 L 702 108 L 702 110 L 701 111 L 701 113 L 700 114 L 700 115 L 699 116 L 699 118 L 698 119 L 698 121 L 697 122 L 697 123 L 696 124 L 696 126 L 695 127 L 695 129 L 694 130 L 694 131 L 693 132 L 693 134 L 692 135 L 692 136 L 691 137 L 691 139 L 690 140 L 690 142 L 689 143 L 689 144 L 688 145 L 688 147 L 687 148 L 687 150 L 686 151 L 686 152 L 685 153 L 685 155 L 684 156 L 684 158 L 683 159 L 683 164 L 690 164 L 691 163 L 694 163 L 695 162 L 698 162 L 699 161 L 700 161 L 701 160 L 703 160 L 704 159 L 705 159 L 706 158 L 707 158 L 708 157 L 709 157 L 710 156 L 711 156 L 712 155 L 713 155 L 714 154 L 715 154 L 719 150 L 719 149 L 720 148 L 720 147 L 721 146 L 721 144 L 722 143 L 722 142 L 723 141 L 723 139 L 724 138 L 724 136 L 725 135 L 725 133 L 726 132 L 726 130 L 727 129 L 727 127 L 728 126 L 728 124 L 729 123 L 729 122 L 730 121 L 730 119 L 731 118 L 731 116 L 732 115 L 732 113 L 733 112 L 733 110 L 734 109 L 734 107 L 735 106 L 735 105 L 736 104 L 736 102 L 737 101 L 737 99 L 738 98 L 738 96 L 739 95 L 739 93 L 740 92 L 740 90 L 741 89 L 741 88 L 742 87 L 742 85 L 743 84 L 743 82 L 744 81 L 744 79 L 745 78 L 745 76 L 746 75 L 746 73 L 747 72 L 747 71 L 748 70 L 748 68 L 749 67 L 749 65 L 750 64 L 750 62 L 751 61 L 751 59 L 752 58 L 752 56 L 753 55 L 753 54 L 754 53 L 754 51 L 755 50 L 755 48 L 756 47 L 756 45 L 757 44 L 757 42 L 758 41 L 760 43 L 760 46 L 761 47 L 761 48 L 762 49 L 762 51 L 763 52 L 763 54 L 764 55 L 764 57 L 765 58 L 765 60 L 766 61 L 766 63 L 767 64 L 767 66 L 768 67 L 768 68 L 769 69 L 769 71 L 770 72 L 770 74 L 771 75 L 771 77 L 772 78 L 772 80 L 773 81 L 773 83 L 774 84 L 774 85 L 775 86 L 775 88 L 776 89 L 776 91 L 777 92 L 777 94 L 778 95 L 778 97 L 779 98 L 779 100 L 780 101 L 780 102 L 781 103 L 781 105 L 782 106 L 782 108 L 783 109 L 783 111 L 784 112 L 784 114 L 785 115 L 785 117 L 786 118 L 786 119 L 787 120 L 787 122 L 788 123 L 788 125 L 789 126 L 789 128 L 790 129 L 790 131 L 791 132 L 791 134 L 792 135 L 792 137 L 793 138 L 793 139 L 794 140 L 794 142 L 795 143 L 795 145 L 796 146 L 796 148 L 797 149 L 797 151 L 798 152 L 798 154 L 799 155 L 799 156 L 800 157 L 800 159 L 801 160 L 801 162 L 802 163 L 802 165 L 803 166 L 803 168 L 804 169 L 804 170 L 807 173 L 832 173 L 835 170 L 835 163 L 834 162 L 834 161 L 833 160 L 833 158 L 832 157 L 832 155 L 831 154 L 831 153 L 830 152 L 830 150 L 829 149 L 829 147 L 828 146 L 828 145 L 827 144 L 827 142 L 826 141 L 826 139 L 825 138 L 825 137 L 824 136 L 824 134 L 823 133 L 823 131 L 822 130 L 822 129 L 821 128 L 821 126 L 820 125 L 820 123 L 819 122 L 819 121 L 818 120 L 818 118 L 817 117 L 817 115 L 816 114 L 816 113 L 815 112 L 815 110 L 814 109 L 814 107 L 813 106 L 813 105 L 812 104 L 812 102 L 811 101 L 811 99 L 810 98 L 810 97 L 809 96 L 809 94 L 808 93 L 808 91 L 807 90 L 807 89 L 806 88 L 806 86 L 805 85 L 805 83 L 804 82 L 804 81 L 803 80 L 803 78 L 802 77 L 802 75 L 801 74 L 801 73 L 800 72 L 800 70 L 799 69 L 799 67 L 798 66 L 798 65 L 797 64 L 797 62 L 796 61 L 796 59 L 795 58 L 795 57 L 794 56 L 794 54 L 793 53 L 793 51 L 792 50 L 792 49 L 791 48 L 791 46 L 790 45 L 790 43 L 789 42 L 789 41 L 788 40 L 788 38 L 787 37 L 787 35 L 786 34 L 786 33 L 785 32 L 785 30 L 784 29 L 784 27 L 783 26 L 783 25 L 782 24 L 782 22 L 781 21 L 781 19 L 780 18 L 780 17 L 779 16 L 779 14 L 778 13 L 778 11 L 777 10 L 777 9 L 776 8 L 776 7 L 774 5 L 773 5 L 772 4 Z" fill="#3268FF" fill-rule="evenodd"/>
</svg>